<svg xmlns="http://www.w3.org/2000/svg" width="1130.917" height="1198.288"><g data-name="Group 8"><g data-name="Group 7" opacity=".65"><g transform="rotate(52 -74.366 334.74)"><circle data-name="Ellipse 4" cx="27.145" cy="27.145" r="27.145" transform="translate(90.485)"/><circle data-name="Ellipse 5" cx="27.145" cy="27.145" r="27.145" transform="translate(180.969)"/><circle data-name="Ellipse 6" cx="27.145" cy="27.145" r="27.145"/></g><g data-name="ellipsis-horizontal" transform="rotate(52 -210.03 612.9)"><circle data-name="Ellipse 4" cx="27.145" cy="27.145" r="27.145" transform="translate(90.485)"/><circle data-name="Ellipse 5" cx="27.145" cy="27.145" r="27.145" transform="translate(180.969)"/><circle data-name="Ellipse 6" cx="27.145" cy="27.145" r="27.145"/></g><g data-name="ellipsis-horizontal" transform="rotate(52 -157.813 294.04)"><circle data-name="Ellipse 4" cx="27.145" cy="27.145" r="27.145" transform="translate(90.485)"/><circle data-name="Ellipse 5" cx="27.145" cy="27.145" r="27.145" transform="translate(180.969)"/><circle data-name="Ellipse 6" cx="27.145" cy="27.145" r="27.145"/></g><g data-name="ellipsis-horizontal" transform="rotate(52 -293.478 572.2)"><circle data-name="Ellipse 4" cx="27.145" cy="27.145" r="27.145" transform="translate(90.485)"/><circle data-name="Ellipse 5" cx="27.145" cy="27.145" r="27.145" transform="translate(180.969)"/><circle data-name="Ellipse 6" cx="27.145" cy="27.145" r="27.145"/></g><g data-name="ellipsis-horizontal" transform="rotate(52 -241.261 253.34)"><circle data-name="Ellipse 4" cx="27.145" cy="27.145" r="27.145" transform="translate(90.485)"/><circle data-name="Ellipse 5" cx="27.145" cy="27.145" r="27.145" transform="translate(180.969)"/><circle data-name="Ellipse 6" cx="27.145" cy="27.145" r="27.145"/></g><g data-name="ellipsis-horizontal" transform="rotate(52 -376.925 531.5)"><circle data-name="Ellipse 4" cx="27.145" cy="27.145" r="27.145" transform="translate(90.485)"/><circle data-name="Ellipse 5" cx="27.145" cy="27.145" r="27.145" transform="translate(180.969)"/><circle data-name="Ellipse 6" cx="27.145" cy="27.145" r="27.145"/></g><g data-name="ellipsis-horizontal" transform="rotate(52 -324.71 212.641)"><circle data-name="Ellipse 4" cx="27.145" cy="27.145" r="27.145" transform="translate(90.485)"/><circle data-name="Ellipse 5" cx="27.145" cy="27.145" r="27.145" transform="translate(180.969)"/><circle data-name="Ellipse 6" cx="27.145" cy="27.145" r="27.145"/></g><g data-name="ellipsis-horizontal" transform="rotate(52 -460.373 490.801)"><circle data-name="Ellipse 4" cx="27.145" cy="27.145" r="27.145" transform="translate(90.485)"/><circle data-name="Ellipse 5" cx="27.145" cy="27.145" r="27.145" transform="translate(180.969)"/><circle data-name="Ellipse 6" cx="27.145" cy="27.145" r="27.145"/></g><g data-name="ellipsis-horizontal" transform="rotate(52 -345.695 891.058)"><circle data-name="Ellipse 4" cx="27.145" cy="27.145" r="27.145" transform="translate(90.485)"/><circle data-name="Ellipse 5" cx="27.145" cy="27.145" r="27.145" transform="translate(180.969)"/><circle data-name="Ellipse 6" cx="27.145" cy="27.145" r="27.145"/></g><g data-name="ellipsis-horizontal" transform="rotate(52 -481.359 1169.218)"><circle data-name="Ellipse 4" cx="27.145" cy="27.145" r="27.145" transform="translate(90.485)"/><circle data-name="Ellipse 5" cx="27.145" cy="27.145" r="27.145" transform="translate(180.969)"/><circle data-name="Ellipse 6" cx="27.145" cy="27.145" r="27.145"/></g><g data-name="ellipsis-horizontal" transform="rotate(52 -429.142 850.36)"><circle data-name="Ellipse 4" cx="27.145" cy="27.145" r="27.145" transform="translate(90.485)"/><circle data-name="Ellipse 5" cx="27.145" cy="27.145" r="27.145" transform="translate(180.969)"/><circle data-name="Ellipse 6" cx="27.145" cy="27.145" r="27.145"/></g><g data-name="ellipsis-horizontal" transform="rotate(52 -564.807 1128.519)"><circle data-name="Ellipse 4" cx="27.145" cy="27.145" r="27.145" transform="translate(90.485)"/><circle data-name="Ellipse 5" cx="27.145" cy="27.145" r="27.145" transform="translate(180.969)"/><circle data-name="Ellipse 6" cx="27.145" cy="27.145" r="27.145"/></g><g data-name="ellipsis-horizontal" transform="rotate(52 -512.59 809.66)"><circle data-name="Ellipse 4" cx="27.145" cy="27.145" r="27.145" transform="translate(90.485)"/><circle data-name="Ellipse 5" cx="27.145" cy="27.145" r="27.145" transform="translate(180.969)"/><circle data-name="Ellipse 6" cx="27.145" cy="27.145" r="27.145"/></g><g data-name="ellipsis-horizontal" transform="rotate(52 -648.255 1087.819)"><circle data-name="Ellipse 4" cx="27.145" cy="27.145" r="27.145" transform="translate(90.485)"/><circle data-name="Ellipse 5" cx="27.145" cy="27.145" r="27.145" transform="translate(180.969)"/><circle data-name="Ellipse 6" cx="27.145" cy="27.145" r="27.145"/></g><g data-name="ellipsis-horizontal" transform="rotate(52 -596.038 768.96)"><circle data-name="Ellipse 4" cx="27.145" cy="27.145" r="27.145" transform="translate(90.485)"/><circle data-name="Ellipse 5" cx="27.145" cy="27.145" r="27.145" transform="translate(180.969)"/><circle data-name="Ellipse 6" cx="27.145" cy="27.145" r="27.145"/></g><g data-name="ellipsis-horizontal" transform="rotate(52 -731.702 1047.12)"><circle data-name="Ellipse 4" cx="27.145" cy="27.145" r="27.145" transform="translate(90.485)"/><circle data-name="Ellipse 5" cx="27.145" cy="27.145" r="27.145" transform="translate(180.969)"/><circle data-name="Ellipse 6" cx="27.145" cy="27.145" r="27.145"/></g></g><g data-name="Group 1" opacity=".65"><g data-name="ellipsis-horizontal" transform="rotate(52 242.25 496.674)"><circle data-name="Ellipse 4" cx="27.145" cy="27.145" r="27.145" transform="translate(90.485)"/><circle data-name="Ellipse 5" cx="27.145" cy="27.145" r="27.145" transform="translate(180.969)"/><circle data-name="Ellipse 6" cx="27.145" cy="27.145" r="27.145"/></g><g data-name="ellipsis-horizontal" transform="rotate(52 106.585 774.834)"><circle data-name="Ellipse 4" cx="27.145" cy="27.145" r="27.145" transform="translate(90.485)"/><circle data-name="Ellipse 5" cx="27.145" cy="27.145" r="27.145" transform="translate(180.969)"/><circle data-name="Ellipse 6" cx="27.145" cy="27.145" r="27.145"/></g><g data-name="ellipsis-horizontal" transform="rotate(52 158.802 455.975)"><circle data-name="Ellipse 4" cx="27.145" cy="27.145" r="27.145" transform="translate(90.485)"/><circle data-name="Ellipse 5" cx="27.145" cy="27.145" r="27.145" transform="translate(180.969)"/><circle data-name="Ellipse 6" cx="27.145" cy="27.145" r="27.145"/></g><g data-name="ellipsis-horizontal" transform="rotate(52 23.137 734.134)"><circle data-name="Ellipse 4" cx="27.145" cy="27.145" r="27.145" transform="translate(90.485)"/><circle data-name="Ellipse 5" cx="27.145" cy="27.145" r="27.145" transform="translate(180.969)"/><circle data-name="Ellipse 6" cx="27.145" cy="27.145" r="27.145"/></g><g data-name="ellipsis-horizontal" transform="rotate(52 75.354 415.276)"><circle data-name="Ellipse 4" cx="27.145" cy="27.145" r="27.145" transform="translate(90.485)"/><circle data-name="Ellipse 5" cx="27.145" cy="27.145" r="27.145" transform="translate(180.969)"/><circle data-name="Ellipse 6" cx="27.145" cy="27.145" r="27.145"/></g><g data-name="ellipsis-horizontal" transform="rotate(52 -60.31 693.436)"><circle data-name="Ellipse 4" cx="27.145" cy="27.145" r="27.145" transform="translate(90.485)"/><circle data-name="Ellipse 5" cx="27.145" cy="27.145" r="27.145" transform="translate(180.969)"/><circle data-name="Ellipse 6" cx="27.145" cy="27.145" r="27.145"/></g><g data-name="ellipsis-horizontal" transform="rotate(52 -8.094 374.576)"><circle data-name="Ellipse 4" cx="27.145" cy="27.145" r="27.145" transform="translate(90.485)"/><circle data-name="Ellipse 5" cx="27.145" cy="27.145" r="27.145" transform="translate(180.969)"/><circle data-name="Ellipse 6" cx="27.145" cy="27.145" r="27.145"/></g><g data-name="ellipsis-horizontal" transform="rotate(52 -143.758 652.736)"><circle data-name="Ellipse 4" cx="27.145" cy="27.145" r="27.145" transform="translate(90.485)"/><circle data-name="Ellipse 5" cx="27.145" cy="27.145" r="27.145" transform="translate(180.969)"/><circle data-name="Ellipse 6" cx="27.145" cy="27.145" r="27.145"/></g><g data-name="ellipsis-horizontal" transform="rotate(52 -29.08 1052.993)"><circle data-name="Ellipse 4" cx="27.145" cy="27.145" r="27.145" transform="translate(90.485)"/><circle data-name="Ellipse 5" cx="27.145" cy="27.145" r="27.145" transform="translate(180.969)"/><circle data-name="Ellipse 6" cx="27.145" cy="27.145" r="27.145"/></g><g data-name="ellipsis-horizontal" transform="rotate(52 -164.744 1331.153)"><circle data-name="Ellipse 4" cx="27.145" cy="27.145" r="27.145" transform="translate(90.485)"/><circle data-name="Ellipse 5" cx="27.145" cy="27.145" r="27.145" transform="translate(180.969)"/><circle data-name="Ellipse 6" cx="27.145" cy="27.145" r="27.145"/></g><g data-name="ellipsis-horizontal" transform="rotate(52 -112.527 1012.294)"><circle data-name="Ellipse 4" cx="27.145" cy="27.145" r="27.145" transform="translate(90.485)"/><circle data-name="Ellipse 5" cx="27.145" cy="27.145" r="27.145" transform="translate(180.969)"/><circle data-name="Ellipse 6" cx="27.145" cy="27.145" r="27.145"/></g><g data-name="ellipsis-horizontal" transform="rotate(52 -248.192 1290.453)"><circle data-name="Ellipse 4" cx="27.145" cy="27.145" r="27.145" transform="translate(90.485)"/><circle data-name="Ellipse 5" cx="27.145" cy="27.145" r="27.145" transform="translate(180.969)"/><circle data-name="Ellipse 6" cx="27.145" cy="27.145" r="27.145"/></g><g data-name="ellipsis-horizontal" transform="rotate(52 -195.975 971.595)"><circle data-name="Ellipse 4" cx="27.145" cy="27.145" r="27.145" transform="translate(90.485)"/><circle data-name="Ellipse 5" cx="27.145" cy="27.145" r="27.145" transform="translate(180.969)"/><circle data-name="Ellipse 6" cx="27.145" cy="27.145" r="27.145"/></g><g data-name="ellipsis-horizontal" transform="rotate(52 -331.64 1249.754)"><circle data-name="Ellipse 4" cx="27.145" cy="27.145" r="27.145" transform="translate(90.485)"/><circle data-name="Ellipse 5" cx="27.145" cy="27.145" r="27.145" transform="translate(180.969)"/><circle data-name="Ellipse 6" cx="27.145" cy="27.145" r="27.145"/></g><g data-name="ellipsis-horizontal" transform="rotate(52 -279.423 930.895)"><circle data-name="Ellipse 4" cx="27.145" cy="27.145" r="27.145" transform="translate(90.485)"/><circle data-name="Ellipse 5" cx="27.145" cy="27.145" r="27.145" transform="translate(180.969)"/><circle data-name="Ellipse 6" cx="27.145" cy="27.145" r="27.145"/></g><g data-name="ellipsis-horizontal" transform="rotate(52 -415.087 1209.055)"><circle data-name="Ellipse 4" cx="27.145" cy="27.145" r="27.145" transform="translate(90.485)"/><circle data-name="Ellipse 5" cx="27.145" cy="27.145" r="27.145" transform="translate(180.969)"/><circle data-name="Ellipse 6" cx="27.145" cy="27.145" r="27.145"/></g></g></g></svg>