<svg xmlns="http://www.w3.org/2000/svg" width="1130.917" height="1198.288" viewBox="0 0 1130.917 1198.288">
  <g id="Group_8" data-name="Group 8" transform="translate(-1181.646 346.671)">
    <g id="Group_7" data-name="Group 7" transform="translate(1919.547 -238.936) rotate(81)" opacity="0.65">
      <g id="ellipsis-horizontal" transform="matrix(0.875, -0.485, 0.485, 0.875, 0, 508.867)">
        <circle id="Ellipse_4" data-name="Ellipse 4" cx="27.145" cy="27.145" r="27.145" transform="translate(90.485 0)"/>
        <circle id="Ellipse_5" data-name="Ellipse 5" cx="27.145" cy="27.145" r="27.145" transform="translate(180.969 0)"/>
        <circle id="Ellipse_6" data-name="Ellipse 6" cx="27.145" cy="27.145" r="27.145"/>
      </g>
      <g id="ellipsis-horizontal-2" data-name="ellipsis-horizontal" transform="matrix(0.875, -0.485, 0.485, 0.875, 237.419, 377.263)">
        <circle id="Ellipse_4-2" data-name="Ellipse 4" cx="27.145" cy="27.145" r="27.145" transform="translate(90.485 0)"/>
        <circle id="Ellipse_5-2" data-name="Ellipse 5" cx="27.145" cy="27.145" r="27.145" transform="translate(180.969 0)"/>
        <circle id="Ellipse_6-2" data-name="Ellipse 6" cx="27.145" cy="27.145" r="27.145"/>
      </g>
      <g id="ellipsis-horizontal-3" data-name="ellipsis-horizontal" transform="matrix(0.875, -0.485, 0.485, 0.875, 39.481, 580.092)">
        <circle id="Ellipse_4-3" data-name="Ellipse 4" cx="27.145" cy="27.145" r="27.145" transform="translate(90.485 0)"/>
        <circle id="Ellipse_5-3" data-name="Ellipse 5" cx="27.145" cy="27.145" r="27.145" transform="translate(180.969 0)"/>
        <circle id="Ellipse_6-3" data-name="Ellipse 6" cx="27.145" cy="27.145" r="27.145"/>
      </g>
      <g id="ellipsis-horizontal-4" data-name="ellipsis-horizontal" transform="matrix(0.875, -0.485, 0.485, 0.875, 276.9, 448.489)">
        <circle id="Ellipse_4-4" data-name="Ellipse 4" cx="27.145" cy="27.145" r="27.145" transform="translate(90.485 0)"/>
        <circle id="Ellipse_5-4" data-name="Ellipse 5" cx="27.145" cy="27.145" r="27.145" transform="translate(180.969 0)"/>
        <circle id="Ellipse_6-4" data-name="Ellipse 6" cx="27.145" cy="27.145" r="27.145"/>
      </g>
      <g id="ellipsis-horizontal-5" data-name="ellipsis-horizontal" transform="matrix(0.875, -0.485, 0.485, 0.875, 78.962, 651.318)">
        <circle id="Ellipse_4-5" data-name="Ellipse 4" cx="27.145" cy="27.145" r="27.145" transform="translate(90.485 0)"/>
        <circle id="Ellipse_5-5" data-name="Ellipse 5" cx="27.145" cy="27.145" r="27.145" transform="translate(180.969 0)"/>
        <circle id="Ellipse_6-5" data-name="Ellipse 6" cx="27.145" cy="27.145" r="27.145"/>
      </g>
      <g id="ellipsis-horizontal-6" data-name="ellipsis-horizontal" transform="matrix(0.875, -0.485, 0.485, 0.875, 316.381, 519.714)">
        <circle id="Ellipse_4-6" data-name="Ellipse 4" cx="27.145" cy="27.145" r="27.145" transform="translate(90.485 0)"/>
        <circle id="Ellipse_5-6" data-name="Ellipse 5" cx="27.145" cy="27.145" r="27.145" transform="translate(180.969 0)"/>
        <circle id="Ellipse_6-6" data-name="Ellipse 6" cx="27.145" cy="27.145" r="27.145"/>
      </g>
      <g id="ellipsis-horizontal-7" data-name="ellipsis-horizontal" transform="matrix(0.875, -0.485, 0.485, 0.875, 118.443, 722.544)">
        <circle id="Ellipse_4-7" data-name="Ellipse 4" cx="27.145" cy="27.145" r="27.145" transform="translate(90.485 0)"/>
        <circle id="Ellipse_5-7" data-name="Ellipse 5" cx="27.145" cy="27.145" r="27.145" transform="translate(180.969 0)"/>
        <circle id="Ellipse_6-7" data-name="Ellipse 6" cx="27.145" cy="27.145" r="27.145"/>
      </g>
      <g id="ellipsis-horizontal-8" data-name="ellipsis-horizontal" transform="matrix(0.875, -0.485, 0.485, 0.875, 355.862, 590.94)">
        <circle id="Ellipse_4-8" data-name="Ellipse 4" cx="27.145" cy="27.145" r="27.145" transform="translate(90.485 0)"/>
        <circle id="Ellipse_5-8" data-name="Ellipse 5" cx="27.145" cy="27.145" r="27.145" transform="translate(180.969 0)"/>
        <circle id="Ellipse_6-8" data-name="Ellipse 6" cx="27.145" cy="27.145" r="27.145"/>
      </g>
      <g id="ellipsis-horizontal-9" data-name="ellipsis-horizontal" transform="matrix(0.875, -0.485, 0.485, 0.875, 474.838, 245.66)">
        <circle id="Ellipse_4-9" data-name="Ellipse 4" cx="27.145" cy="27.145" r="27.145" transform="translate(90.485 0)"/>
        <circle id="Ellipse_5-9" data-name="Ellipse 5" cx="27.145" cy="27.145" r="27.145" transform="translate(180.969 0)"/>
        <circle id="Ellipse_6-9" data-name="Ellipse 6" cx="27.145" cy="27.145" r="27.145"/>
      </g>
      <g id="ellipsis-horizontal-10" data-name="ellipsis-horizontal" transform="matrix(0.875, -0.485, 0.485, 0.875, 712.257, 114.056)">
        <circle id="Ellipse_4-10" data-name="Ellipse 4" cx="27.145" cy="27.145" r="27.145" transform="translate(90.485 0)"/>
        <circle id="Ellipse_5-10" data-name="Ellipse 5" cx="27.145" cy="27.145" r="27.145" transform="translate(180.969 0)"/>
        <circle id="Ellipse_6-10" data-name="Ellipse 6" cx="27.145" cy="27.145" r="27.145" transform="translate(0 0)"/>
      </g>
      <g id="ellipsis-horizontal-11" data-name="ellipsis-horizontal" transform="matrix(0.875, -0.485, 0.485, 0.875, 514.319, 316.885)">
        <circle id="Ellipse_4-11" data-name="Ellipse 4" cx="27.145" cy="27.145" r="27.145" transform="translate(90.485 0)"/>
        <circle id="Ellipse_5-11" data-name="Ellipse 5" cx="27.145" cy="27.145" r="27.145" transform="translate(180.969 0)"/>
        <circle id="Ellipse_6-11" data-name="Ellipse 6" cx="27.145" cy="27.145" r="27.145"/>
      </g>
      <g id="ellipsis-horizontal-12" data-name="ellipsis-horizontal" transform="matrix(0.875, -0.485, 0.485, 0.875, 751.738, 185.282)">
        <circle id="Ellipse_4-12" data-name="Ellipse 4" cx="27.145" cy="27.145" r="27.145" transform="translate(90.485 0)"/>
        <circle id="Ellipse_5-12" data-name="Ellipse 5" cx="27.145" cy="27.145" r="27.145" transform="translate(180.969 0)"/>
        <circle id="Ellipse_6-12" data-name="Ellipse 6" cx="27.145" cy="27.145" r="27.145" transform="translate(0 0)"/>
      </g>
      <g id="ellipsis-horizontal-13" data-name="ellipsis-horizontal" transform="matrix(0.875, -0.485, 0.485, 0.875, 553.8, 388.111)">
        <circle id="Ellipse_4-13" data-name="Ellipse 4" cx="27.145" cy="27.145" r="27.145" transform="translate(90.485 0)"/>
        <circle id="Ellipse_5-13" data-name="Ellipse 5" cx="27.145" cy="27.145" r="27.145" transform="translate(180.969 0)"/>
        <circle id="Ellipse_6-13" data-name="Ellipse 6" cx="27.145" cy="27.145" r="27.145"/>
      </g>
      <g id="ellipsis-horizontal-14" data-name="ellipsis-horizontal" transform="matrix(0.875, -0.485, 0.485, 0.875, 791.219, 256.508)">
        <circle id="Ellipse_4-14" data-name="Ellipse 4" cx="27.145" cy="27.145" r="27.145" transform="translate(90.485 0)"/>
        <circle id="Ellipse_5-14" data-name="Ellipse 5" cx="27.145" cy="27.145" r="27.145" transform="translate(180.969 0)"/>
        <circle id="Ellipse_6-14" data-name="Ellipse 6" cx="27.145" cy="27.145" r="27.145" transform="translate(0 0)"/>
      </g>
      <g id="ellipsis-horizontal-15" data-name="ellipsis-horizontal" transform="matrix(0.875, -0.485, 0.485, 0.875, 593.281, 459.337)">
        <circle id="Ellipse_4-15" data-name="Ellipse 4" cx="27.145" cy="27.145" r="27.145" transform="translate(90.485 0)"/>
        <circle id="Ellipse_5-15" data-name="Ellipse 5" cx="27.145" cy="27.145" r="27.145" transform="translate(180.969 0)"/>
        <circle id="Ellipse_6-15" data-name="Ellipse 6" cx="27.145" cy="27.145" r="27.145"/>
      </g>
      <g id="ellipsis-horizontal-16" data-name="ellipsis-horizontal" transform="matrix(0.875, -0.485, 0.485, 0.875, 830.7, 327.733)">
        <circle id="Ellipse_4-16" data-name="Ellipse 4" cx="27.145" cy="27.145" r="27.145" transform="translate(90.485 0)"/>
        <circle id="Ellipse_5-16" data-name="Ellipse 5" cx="27.145" cy="27.145" r="27.145" transform="translate(180.969 0)"/>
        <circle id="Ellipse_6-16" data-name="Ellipse 6" cx="27.145" cy="27.145" r="27.145" transform="translate(0 0)"/>
      </g>
    </g>
    <g id="Group_1" data-name="Group 1" transform="translate(2168.953 -426.275) rotate(81)" opacity="0.65">
      <g id="ellipsis-horizontal-17" data-name="ellipsis-horizontal" transform="matrix(0.875, -0.485, 0.485, 0.875, 0, 508.867)">
        <circle id="Ellipse_4-17" data-name="Ellipse 4" cx="27.145" cy="27.145" r="27.145" transform="translate(90.485 0)"/>
        <circle id="Ellipse_5-17" data-name="Ellipse 5" cx="27.145" cy="27.145" r="27.145" transform="translate(180.969 0)"/>
        <circle id="Ellipse_6-17" data-name="Ellipse 6" cx="27.145" cy="27.145" r="27.145"/>
      </g>
      <g id="ellipsis-horizontal-18" data-name="ellipsis-horizontal" transform="matrix(0.875, -0.485, 0.485, 0.875, 237.419, 377.263)">
        <circle id="Ellipse_4-18" data-name="Ellipse 4" cx="27.145" cy="27.145" r="27.145" transform="translate(90.485 0)"/>
        <circle id="Ellipse_5-18" data-name="Ellipse 5" cx="27.145" cy="27.145" r="27.145" transform="translate(180.969 0)"/>
        <circle id="Ellipse_6-18" data-name="Ellipse 6" cx="27.145" cy="27.145" r="27.145"/>
      </g>
      <g id="ellipsis-horizontal-19" data-name="ellipsis-horizontal" transform="matrix(0.875, -0.485, 0.485, 0.875, 39.481, 580.092)">
        <circle id="Ellipse_4-19" data-name="Ellipse 4" cx="27.145" cy="27.145" r="27.145" transform="translate(90.485 0)"/>
        <circle id="Ellipse_5-19" data-name="Ellipse 5" cx="27.145" cy="27.145" r="27.145" transform="translate(180.969 0)"/>
        <circle id="Ellipse_6-19" data-name="Ellipse 6" cx="27.145" cy="27.145" r="27.145"/>
      </g>
      <g id="ellipsis-horizontal-20" data-name="ellipsis-horizontal" transform="matrix(0.875, -0.485, 0.485, 0.875, 276.9, 448.489)">
        <circle id="Ellipse_4-20" data-name="Ellipse 4" cx="27.145" cy="27.145" r="27.145" transform="translate(90.485 0)"/>
        <circle id="Ellipse_5-20" data-name="Ellipse 5" cx="27.145" cy="27.145" r="27.145" transform="translate(180.969 0)"/>
        <circle id="Ellipse_6-20" data-name="Ellipse 6" cx="27.145" cy="27.145" r="27.145"/>
      </g>
      <g id="ellipsis-horizontal-21" data-name="ellipsis-horizontal" transform="matrix(0.875, -0.485, 0.485, 0.875, 78.962, 651.318)">
        <circle id="Ellipse_4-21" data-name="Ellipse 4" cx="27.145" cy="27.145" r="27.145" transform="translate(90.485 0)"/>
        <circle id="Ellipse_5-21" data-name="Ellipse 5" cx="27.145" cy="27.145" r="27.145" transform="translate(180.969 0)"/>
        <circle id="Ellipse_6-21" data-name="Ellipse 6" cx="27.145" cy="27.145" r="27.145"/>
      </g>
      <g id="ellipsis-horizontal-22" data-name="ellipsis-horizontal" transform="matrix(0.875, -0.485, 0.485, 0.875, 316.381, 519.714)">
        <circle id="Ellipse_4-22" data-name="Ellipse 4" cx="27.145" cy="27.145" r="27.145" transform="translate(90.485 0)"/>
        <circle id="Ellipse_5-22" data-name="Ellipse 5" cx="27.145" cy="27.145" r="27.145" transform="translate(180.969 0)"/>
        <circle id="Ellipse_6-22" data-name="Ellipse 6" cx="27.145" cy="27.145" r="27.145"/>
      </g>
      <g id="ellipsis-horizontal-23" data-name="ellipsis-horizontal" transform="matrix(0.875, -0.485, 0.485, 0.875, 118.443, 722.544)">
        <circle id="Ellipse_4-23" data-name="Ellipse 4" cx="27.145" cy="27.145" r="27.145" transform="translate(90.485 0)"/>
        <circle id="Ellipse_5-23" data-name="Ellipse 5" cx="27.145" cy="27.145" r="27.145" transform="translate(180.969 0)"/>
        <circle id="Ellipse_6-23" data-name="Ellipse 6" cx="27.145" cy="27.145" r="27.145"/>
      </g>
      <g id="ellipsis-horizontal-24" data-name="ellipsis-horizontal" transform="matrix(0.875, -0.485, 0.485, 0.875, 355.862, 590.94)">
        <circle id="Ellipse_4-24" data-name="Ellipse 4" cx="27.145" cy="27.145" r="27.145" transform="translate(90.485 0)"/>
        <circle id="Ellipse_5-24" data-name="Ellipse 5" cx="27.145" cy="27.145" r="27.145" transform="translate(180.969 0)"/>
        <circle id="Ellipse_6-24" data-name="Ellipse 6" cx="27.145" cy="27.145" r="27.145"/>
      </g>
      <g id="ellipsis-horizontal-25" data-name="ellipsis-horizontal" transform="matrix(0.875, -0.485, 0.485, 0.875, 474.838, 245.66)">
        <circle id="Ellipse_4-25" data-name="Ellipse 4" cx="27.145" cy="27.145" r="27.145" transform="translate(90.485 0)"/>
        <circle id="Ellipse_5-25" data-name="Ellipse 5" cx="27.145" cy="27.145" r="27.145" transform="translate(180.969 0)"/>
        <circle id="Ellipse_6-25" data-name="Ellipse 6" cx="27.145" cy="27.145" r="27.145"/>
      </g>
      <g id="ellipsis-horizontal-26" data-name="ellipsis-horizontal" transform="matrix(0.875, -0.485, 0.485, 0.875, 712.257, 114.056)">
        <circle id="Ellipse_4-26" data-name="Ellipse 4" cx="27.145" cy="27.145" r="27.145" transform="translate(90.485 0)"/>
        <circle id="Ellipse_5-26" data-name="Ellipse 5" cx="27.145" cy="27.145" r="27.145" transform="translate(180.969 0)"/>
        <circle id="Ellipse_6-26" data-name="Ellipse 6" cx="27.145" cy="27.145" r="27.145" transform="translate(0 0)"/>
      </g>
      <g id="ellipsis-horizontal-27" data-name="ellipsis-horizontal" transform="matrix(0.875, -0.485, 0.485, 0.875, 514.319, 316.885)">
        <circle id="Ellipse_4-27" data-name="Ellipse 4" cx="27.145" cy="27.145" r="27.145" transform="translate(90.485 0)"/>
        <circle id="Ellipse_5-27" data-name="Ellipse 5" cx="27.145" cy="27.145" r="27.145" transform="translate(180.969 0)"/>
        <circle id="Ellipse_6-27" data-name="Ellipse 6" cx="27.145" cy="27.145" r="27.145"/>
      </g>
      <g id="ellipsis-horizontal-28" data-name="ellipsis-horizontal" transform="matrix(0.875, -0.485, 0.485, 0.875, 751.738, 185.282)">
        <circle id="Ellipse_4-28" data-name="Ellipse 4" cx="27.145" cy="27.145" r="27.145" transform="translate(90.485 0)"/>
        <circle id="Ellipse_5-28" data-name="Ellipse 5" cx="27.145" cy="27.145" r="27.145" transform="translate(180.969 0)"/>
        <circle id="Ellipse_6-28" data-name="Ellipse 6" cx="27.145" cy="27.145" r="27.145" transform="translate(0 0)"/>
      </g>
      <g id="ellipsis-horizontal-29" data-name="ellipsis-horizontal" transform="matrix(0.875, -0.485, 0.485, 0.875, 553.8, 388.111)">
        <circle id="Ellipse_4-29" data-name="Ellipse 4" cx="27.145" cy="27.145" r="27.145" transform="translate(90.485 0)"/>
        <circle id="Ellipse_5-29" data-name="Ellipse 5" cx="27.145" cy="27.145" r="27.145" transform="translate(180.969 0)"/>
        <circle id="Ellipse_6-29" data-name="Ellipse 6" cx="27.145" cy="27.145" r="27.145"/>
      </g>
      <g id="ellipsis-horizontal-30" data-name="ellipsis-horizontal" transform="matrix(0.875, -0.485, 0.485, 0.875, 791.219, 256.508)">
        <circle id="Ellipse_4-30" data-name="Ellipse 4" cx="27.145" cy="27.145" r="27.145" transform="translate(90.485 0)"/>
        <circle id="Ellipse_5-30" data-name="Ellipse 5" cx="27.145" cy="27.145" r="27.145" transform="translate(180.969 0)"/>
        <circle id="Ellipse_6-30" data-name="Ellipse 6" cx="27.145" cy="27.145" r="27.145" transform="translate(0 0)"/>
      </g>
      <g id="ellipsis-horizontal-31" data-name="ellipsis-horizontal" transform="matrix(0.875, -0.485, 0.485, 0.875, 593.281, 459.337)">
        <circle id="Ellipse_4-31" data-name="Ellipse 4" cx="27.145" cy="27.145" r="27.145" transform="translate(90.485 0)"/>
        <circle id="Ellipse_5-31" data-name="Ellipse 5" cx="27.145" cy="27.145" r="27.145" transform="translate(180.969 0)"/>
        <circle id="Ellipse_6-31" data-name="Ellipse 6" cx="27.145" cy="27.145" r="27.145"/>
      </g>
      <g id="ellipsis-horizontal-32" data-name="ellipsis-horizontal" transform="matrix(0.875, -0.485, 0.485, 0.875, 830.7, 327.733)">
        <circle id="Ellipse_4-32" data-name="Ellipse 4" cx="27.145" cy="27.145" r="27.145" transform="translate(90.485 0)"/>
        <circle id="Ellipse_5-32" data-name="Ellipse 5" cx="27.145" cy="27.145" r="27.145" transform="translate(180.969 0)"/>
        <circle id="Ellipse_6-32" data-name="Ellipse 6" cx="27.145" cy="27.145" r="27.145" transform="translate(0 0)"/>
      </g>
    </g>
  </g>
</svg>
